<mxfile host="app.diagrams.net" agent="Mozilla/5.0 (Macintosh; Intel Mac OS X 10_15_7) AppleWebKit/537.36 (KHTML, like Gecko) Chrome/136.0.0.0 Safari/537.36 Edg/136.0.0.0" version="27.0.5">
  <diagram name="Page-1" id="nhVNrLk-6gyvc64E4Qyq">
    <mxGraphModel dx="2060" dy="1828" grid="1" gridSize="10" guides="1" tooltips="1" connect="1" arrows="1" fold="1" page="1" pageScale="1" pageWidth="850" pageHeight="1100" math="0" shadow="0">
      <root>
        <mxCell id="0" />
        <mxCell id="1" parent="0" />
        <mxCell id="A5Qr4FXbDm95RBFWQ0Zg-1" value="" style="rounded=0;whiteSpace=wrap;html=1;" parent="1" vertex="1">
          <mxGeometry x="490" y="280" width="180" height="70" as="geometry" />
        </mxCell>
        <mxCell id="A5Qr4FXbDm95RBFWQ0Zg-2" value="&lt;font style=&quot;font-size: 14px;&quot;&gt;String id;&lt;/font&gt;&lt;div&gt;&lt;font size=&quot;3&quot;&gt;int currPos;&lt;/font&gt;&lt;/div&gt;" style="text;html=1;align=center;verticalAlign=middle;whiteSpace=wrap;rounded=0;" parent="1" vertex="1">
          <mxGeometry x="530" y="300" width="100" height="30" as="geometry" />
        </mxCell>
        <mxCell id="A5Qr4FXbDm95RBFWQ0Zg-3" value="&lt;font style=&quot;font-size: 14px;&quot;&gt;Player&lt;/font&gt;" style="text;html=1;align=center;verticalAlign=middle;whiteSpace=wrap;rounded=0;" parent="1" vertex="1">
          <mxGeometry x="550" y="240" width="60" height="30" as="geometry" />
        </mxCell>
        <mxCell id="A5Qr4FXbDm95RBFWQ0Zg-4" value="" style="rounded=0;whiteSpace=wrap;html=1;" parent="1" vertex="1">
          <mxGeometry x="200" y="280" width="180" height="100" as="geometry" />
        </mxCell>
        <mxCell id="A5Qr4FXbDm95RBFWQ0Zg-5" value="&lt;span style=&quot;font-size: 14px;&quot;&gt;int diceCount;&lt;/span&gt;" style="text;html=1;align=center;verticalAlign=middle;whiteSpace=wrap;rounded=0;" parent="1" vertex="1">
          <mxGeometry x="240" y="280" width="100" height="30" as="geometry" />
        </mxCell>
        <mxCell id="A5Qr4FXbDm95RBFWQ0Zg-6" value="&lt;span style=&quot;font-size: 14px;&quot;&gt;Dice&lt;/span&gt;" style="text;html=1;align=center;verticalAlign=middle;whiteSpace=wrap;rounded=0;" parent="1" vertex="1">
          <mxGeometry x="260" y="240" width="60" height="30" as="geometry" />
        </mxCell>
        <mxCell id="A5Qr4FXbDm95RBFWQ0Zg-7" value="" style="endArrow=none;html=1;rounded=0;" parent="1" edge="1">
          <mxGeometry width="50" height="50" relative="1" as="geometry">
            <mxPoint x="200" y="320" as="sourcePoint" />
            <mxPoint x="380" y="320" as="targetPoint" />
          </mxGeometry>
        </mxCell>
        <mxCell id="A5Qr4FXbDm95RBFWQ0Zg-8" value="&lt;font style=&quot;font-size: 14px;&quot;&gt;rollDice()&lt;/font&gt;" style="text;html=1;align=center;verticalAlign=middle;whiteSpace=wrap;rounded=0;" parent="1" vertex="1">
          <mxGeometry x="120" y="280" width="60" height="30" as="geometry" />
        </mxCell>
        <mxCell id="A5Qr4FXbDm95RBFWQ0Zg-9" value="" style="rounded=0;whiteSpace=wrap;html=1;" parent="1" vertex="1">
          <mxGeometry x="-70" y="280" width="180" height="70" as="geometry" />
        </mxCell>
        <mxCell id="A5Qr4FXbDm95RBFWQ0Zg-10" value="&lt;font style=&quot;font-size: 14px;&quot;&gt;int start;&lt;/font&gt;&lt;div&gt;&lt;font size=&quot;3&quot;&gt;int end;&lt;/font&gt;&lt;/div&gt;" style="text;html=1;align=center;verticalAlign=middle;whiteSpace=wrap;rounded=0;" parent="1" vertex="1">
          <mxGeometry x="-30" y="300" width="100" height="30" as="geometry" />
        </mxCell>
        <mxCell id="A5Qr4FXbDm95RBFWQ0Zg-11" value="&lt;span style=&quot;font-size: 14px;&quot;&gt;Jump&lt;/span&gt;" style="text;html=1;align=center;verticalAlign=middle;whiteSpace=wrap;rounded=0;" parent="1" vertex="1">
          <mxGeometry x="-10" y="240" width="60" height="30" as="geometry" />
        </mxCell>
        <mxCell id="A5Qr4FXbDm95RBFWQ0Zg-12" value="" style="rounded=0;whiteSpace=wrap;html=1;" parent="1" vertex="1">
          <mxGeometry x="-70" y="-90" width="180" height="50" as="geometry" />
        </mxCell>
        <mxCell id="A5Qr4FXbDm95RBFWQ0Zg-13" value="&lt;div&gt;&lt;font size=&quot;3&quot;&gt;Jump obj;&lt;/font&gt;&lt;/div&gt;" style="text;html=1;align=center;verticalAlign=middle;whiteSpace=wrap;rounded=0;" parent="1" vertex="1">
          <mxGeometry x="-30" y="-80" width="100" height="30" as="geometry" />
        </mxCell>
        <mxCell id="A5Qr4FXbDm95RBFWQ0Zg-14" value="&lt;span style=&quot;font-size: 14px;&quot;&gt;Cell&lt;/span&gt;" style="text;html=1;align=center;verticalAlign=middle;whiteSpace=wrap;rounded=0;" parent="1" vertex="1">
          <mxGeometry x="-10" y="-120" width="60" height="20" as="geometry" />
        </mxCell>
        <mxCell id="A5Qr4FXbDm95RBFWQ0Zg-15" value="" style="rounded=0;whiteSpace=wrap;html=1;" parent="1" vertex="1">
          <mxGeometry x="-70" y="80" width="180" height="100" as="geometry" />
        </mxCell>
        <mxCell id="A5Qr4FXbDm95RBFWQ0Zg-16" value="&lt;span style=&quot;font-size: 14px;&quot;&gt;Cell[][] cells;&lt;/span&gt;" style="text;html=1;align=center;verticalAlign=middle;whiteSpace=wrap;rounded=0;" parent="1" vertex="1">
          <mxGeometry x="-30" y="80" width="100" height="30" as="geometry" />
        </mxCell>
        <mxCell id="A5Qr4FXbDm95RBFWQ0Zg-17" value="&lt;span style=&quot;font-size: 14px;&quot;&gt;Board&lt;/span&gt;" style="text;html=1;align=center;verticalAlign=middle;whiteSpace=wrap;rounded=0;" parent="1" vertex="1">
          <mxGeometry x="-10" y="40" width="60" height="30" as="geometry" />
        </mxCell>
        <mxCell id="A5Qr4FXbDm95RBFWQ0Zg-18" value="" style="endArrow=none;html=1;rounded=0;" parent="1" edge="1">
          <mxGeometry width="50" height="50" relative="1" as="geometry">
            <mxPoint x="-70" y="120" as="sourcePoint" />
            <mxPoint x="110" y="120" as="targetPoint" />
          </mxGeometry>
        </mxCell>
        <mxCell id="A5Qr4FXbDm95RBFWQ0Zg-19" value="" style="endArrow=classic;html=1;rounded=0;entryX=0.383;entryY=1.04;entryDx=0;entryDy=0;entryPerimeter=0;exitX=0.149;exitY=0.333;exitDx=0;exitDy=0;exitPerimeter=0;" parent="1" source="A5Qr4FXbDm95RBFWQ0Zg-17" target="A5Qr4FXbDm95RBFWQ0Zg-12" edge="1">
          <mxGeometry width="50" height="50" relative="1" as="geometry">
            <mxPoint x="340" y="180" as="sourcePoint" />
            <mxPoint x="390" y="130" as="targetPoint" />
          </mxGeometry>
        </mxCell>
        <mxCell id="A5Qr4FXbDm95RBFWQ0Zg-20" value="" style="edgeStyle=elbowEdgeStyle;elbow=horizontal;endArrow=classic;html=1;curved=0;rounded=0;endSize=8;startSize=8;exitX=0;exitY=0.5;exitDx=0;exitDy=0;entryX=0;entryY=0.25;entryDx=0;entryDy=0;" parent="1" source="A5Qr4FXbDm95RBFWQ0Zg-12" target="A5Qr4FXbDm95RBFWQ0Zg-9" edge="1">
          <mxGeometry width="50" height="50" relative="1" as="geometry">
            <mxPoint x="-120" y="-60" as="sourcePoint" />
            <mxPoint x="-200" y="300" as="targetPoint" />
            <Array as="points">
              <mxPoint x="-210" y="130" />
            </Array>
          </mxGeometry>
        </mxCell>
        <mxCell id="A5Qr4FXbDm95RBFWQ0Zg-21" value="" style="rounded=0;whiteSpace=wrap;html=1;" parent="1" vertex="1">
          <mxGeometry x="370" y="-90" width="270" height="100" as="geometry" />
        </mxCell>
        <mxCell id="A5Qr4FXbDm95RBFWQ0Zg-22" value="&lt;font style=&quot;font-size: 14px;&quot;&gt;Board board;&lt;/font&gt;&lt;div&gt;&lt;font size=&quot;3&quot;&gt;Dice dice;&lt;/font&gt;&lt;/div&gt;&lt;div&gt;&lt;font size=&quot;3&quot;&gt;Deqeue&amp;lt;Player&amp;gt; playersList;&lt;/font&gt;&lt;/div&gt;" style="text;html=1;align=center;verticalAlign=middle;whiteSpace=wrap;rounded=0;" parent="1" vertex="1">
          <mxGeometry x="380" y="-70" width="230" height="50" as="geometry" />
        </mxCell>
        <mxCell id="q-IWKJNSDoOAMbIMlM_r-3" value="" style="edgeStyle=elbowEdgeStyle;elbow=horizontal;endArrow=classic;html=1;curved=0;rounded=0;endSize=8;startSize=8;entryX=1;entryY=0.4;entryDx=0;entryDy=0;entryPerimeter=0;exitX=0;exitY=0.5;exitDx=0;exitDy=0;" edge="1" parent="1" source="A5Qr4FXbDm95RBFWQ0Zg-21" target="A5Qr4FXbDm95RBFWQ0Zg-15">
          <mxGeometry width="50" height="50" relative="1" as="geometry">
            <mxPoint x="220" y="30" as="sourcePoint" />
            <mxPoint x="270" y="-20" as="targetPoint" />
          </mxGeometry>
        </mxCell>
        <mxCell id="q-IWKJNSDoOAMbIMlM_r-5" value="" style="edgeStyle=elbowEdgeStyle;elbow=vertical;endArrow=classic;html=1;curved=0;rounded=0;endSize=8;startSize=8;exitX=0.104;exitY=1;exitDx=0;exitDy=0;exitPerimeter=0;" edge="1" parent="1" source="A5Qr4FXbDm95RBFWQ0Zg-21">
          <mxGeometry width="50" height="50" relative="1" as="geometry">
            <mxPoint x="220" y="30" as="sourcePoint" />
            <mxPoint x="360" y="280" as="targetPoint" />
          </mxGeometry>
        </mxCell>
        <mxCell id="q-IWKJNSDoOAMbIMlM_r-6" value="" style="endArrow=classic;html=1;rounded=0;entryX=0.25;entryY=0;entryDx=0;entryDy=0;exitX=0.704;exitY=1.02;exitDx=0;exitDy=0;exitPerimeter=0;" edge="1" parent="1" source="A5Qr4FXbDm95RBFWQ0Zg-21" target="A5Qr4FXbDm95RBFWQ0Zg-3">
          <mxGeometry width="50" height="50" relative="1" as="geometry">
            <mxPoint x="220" y="30" as="sourcePoint" />
            <mxPoint x="270" y="-20" as="targetPoint" />
          </mxGeometry>
        </mxCell>
      </root>
    </mxGraphModel>
  </diagram>
</mxfile>
